<?xml version="1.0" encoding="utf-8"?>
<!-- Generator: Adobe Illustrator 27.0.0, SVG Export Plug-In . SVG Version: 6.00 Build 0)  -->
<svg version="1.1" id="Layer_1" xmlns="http://www.w3.org/2000/svg" xmlns:xlink="http://www.w3.org/1999/xlink" x="0px" y="0px"
	 viewBox="0 0 1366 281.1" style="enable-background:new 0 0 1366 281.1;" xml:space="preserve">
<style type="text/css">
	.st0{fill:#51612D;}
	.st1{fill:none;stroke:#52622D;stroke-width:14;stroke-linecap:round;stroke-miterlimit:10;}
	.st2{enable-background:new    ;}
	.st3{fill:#52622D;}
</style>
<path class="st0" d="M216.6,256c2.8,1.8,13.1,8.5,28.7,13.1c11.1,3.3,33.8,10,57.1,0.8c6.1-2.5,14.9-5.9,21.2-15.1
	c3.1-4.6,4.8-9.3,5.4-13.3c9.3-3.4,17.4-7.1,23.6-10.2l-2.8-5.9c-6.4,3.8-14.4,8.2-23.9,12.3c-7.1,2.5-14.8,4.8-23.1,6.7
	c-25.4,5.9-46.6,6.1-60.2,5.2c13.9,0.2,33.4-1,56.1-7.1c11-3,20.7-6.6,29.3-10.3c-5.4-4.4-14.4-10.5-26.4-12.8
	c-22.8-4.4-36.7,8.2-68.9,13.1c-9.2,1.3-22.8,2.6-40,0.8C197.1,239.4,205,248.1,216.6,256L216.6,256z"/>
<path class="st0" d="M184.7,30.4c-3,1.5-13.8,7.4-25.4,18.7c-8.4,8.2-25.2,24.6-28.7,49.4c-1,6.6-2.1,15.9,3,25.7
	c2.5,4.9,5.9,8.7,8.9,11.1c-1.6,9.8-2.3,18.5-2.6,25.6l6.7,0.3c-0.2-7.5,0-16.6,1-26.9c1.3-7.4,3.1-15.2,5.4-23.6
	c7.2-25.1,17.5-43.6,24.9-55.1c-7.1,12.1-15.6,29.7-21.2,52.3c-2.8,11-4.4,21.3-5.2,30.7c6.6-2.6,16.2-7.4,24.1-16.9
	c14.9-17.7,10.8-36.1,22.1-66.4c3.3-8.7,8.9-21.2,18.9-35.3C208.8,21.4,197.3,24,184.7,30.4L184.7,30.4z"/>
<path class="st0" d="M418.8,119.3c0.2-3.4,0.8-15.6-3-31.5c-2.8-11.3-8.2-34.3-27.9-50c-5.1-4.1-12.6-10-23.6-10.7
	c-5.6-0.3-10.5,0.7-14.1,1.8c-7.7-6.4-14.8-11.5-20.7-15.4l-3.6,5.6c6.6,3.6,14.3,8.4,22.6,14.6c5.7,4.9,11.5,10.5,17.4,16.7
	c17.9,19,28.5,37.4,34.6,49.5C393.7,87.6,383,71.4,366.5,55c-8-8-16.1-14.8-23.6-20.2c-1.1,6.9-2,17.7,2.1,29.3
	c7.5,22,25.6,27.7,45.7,53.1c5.7,7.2,13.6,18.4,20.7,34.3C414.2,144.5,418,133.4,418.8,119.3L418.8,119.3z"/>
<path class="st1" d="M248.4,77.3c0-14.3,11.5-25.7,25.7-25.7c14.3,0,25.7,11.5,25.7,25.7S288.4,103,274.2,103"/>
<line class="st1" x1="274.2" y1="103" x2="274.2" y2="127.5"/>
<g>
	<path class="st0" d="M510.8,213.5c-2.5,5.7-8.2,9.8-14.9,9.8c-7.9,0-15.2-6.9-16.1-14.8c-0.2-1.8,0-3.6,0.5-5.2
		c0.3-1.5-0.5-2.8-2-3.3l-148.2-45.6c-8.5-2.6-16.1-8-21.2-15.4c-7.5-11.3-20.3-18.7-34.9-18.7v17.1v38.2l254,77.7
		c3.6,1.1,7.2-1.6,7.2-5.4c0-14.9-8-28.4-20.5-35.7C513.2,211.4,511.4,211.9,510.8,213.5L510.8,213.5z"/>
	<path class="st0" d="M37.6,213.5c2.5,5.7,8.2,9.8,14.9,9.8c7.9,0,15.2-6.9,16.1-14.8c0.2-1.8,0-3.6-0.5-5.2c-0.3-1.5,0.5-2.8,2-3.3
		l148.4-45.4c8.5-2.6,16.1-8,21.2-15.4c7.5-11.3,20.3-18.7,34.9-18.7v17.1v38.2L20.4,253.4c-3.6,1.1-7.2-1.6-7.2-5.4
		c0-14.9,8-28.4,20.5-35.7C35,211.4,36.9,211.9,37.6,213.5L37.6,213.5z"/>
</g>
<g class="st2">
	<path class="st3" d="M705.2,191.6V76.3l-51.2,89.2h-8l-51.3-89.2v115.3h-13.8V51.2h14.3l54.8,96.1l55.1-96.1h14.1v140.3H705.2z"/>
	<path class="st3" d="M754.1,191.6V51.2h13.8v140.3H754.1z"/>
</g>
<g class="st2">
	<path class="st3" d="M803.1,191.6V51.2h92.1v12.3H817v51.6h66.1v11.5H817v65.1h-13.9V191.6z"/>
</g>
<g class="st2">
	<path class="st3" d="M947.5,51.2h11.6l58.4,140.3H1003l-18.2-43.9h-63l-18,43.9H889L947.5,51.2z M981.6,136.8l-28.2-69.4
		l-28.7,69.4H981.6z"/>
	<path class="st3" d="M1051.5,77v114.6h-13.8V51.2h10.7l92.8,116.7V51.4h13.8v140.2h-12.1L1051.5,77z"/>
	<path class="st3" d="M1190.4,191.6V51.2h13.8v140.3H1190.4z"/>
</g>
<g class="st2">
	<path class="st3" d="M1282.8,51.2h11.6l58.4,140.3h-14.6l-18.2-43.9h-63l-18,43.9h-14.8L1282.8,51.2z M1316.8,136.8l-28.2-69.4
		l-28.7,69.4H1316.8z"/>
</g>
<g class="st2">
	<path class="st3" d="M571.8,252.9c-2-0.7-3.6-1.6-4.8-2.6l1.5-3.3c1.1,1,2.6,1.8,4.3,2.5c1.6,0.7,3.6,1,5.4,1
		c2.5,0,4.3-0.3,5.4-1.3c1.1-0.8,1.8-2,1.8-3.3c0-1-0.3-1.8-1-2.5s-1.5-1.1-2.5-1.5c-1-0.3-2.3-0.7-4.1-1.1c-2.1-0.5-3.9-1-5.4-1.6
		c-1.3-0.5-2.5-1.3-3.4-2.5c-1-1.1-1.5-2.6-1.5-4.4c0-1.6,0.5-3,1.3-4.3c0.8-1.3,2.1-2.3,3.8-3c1.6-0.7,3.8-1.1,6.2-1.1
		c1.8,0,3.4,0.2,5.1,0.7c1.6,0.5,3.1,1.1,4.3,2l-1.3,3.3c-1.1-0.8-2.5-1.3-3.9-1.8s-2.8-0.7-4.1-0.7c-2.3,0-4.1,0.5-5.4,1.3
		c-1.1,0.8-1.8,2-1.8,3.3c0,1,0.3,1.8,1,2.5s1.5,1.1,2.5,1.5c1,0.3,2.3,0.7,4.1,1.1c2.1,0.5,3.9,1,5.2,1.6c1.3,0.5,2.5,1.3,3.4,2.5
		s1.5,2.6,1.5,4.4c0,1.5-0.5,3-1.3,4.3c-0.8,1.3-2.1,2.3-3.8,3c-1.6,0.8-3.8,1.1-6.2,1.1C575.9,253.9,573.9,253.5,571.8,252.9z"/>
	<path class="st3" d="M598.6,250.6c-2.1-2.3-3.3-5.4-3.3-9.7v-16.6h4.3v16.4c0,6.2,2.8,9.3,8.2,9.3c2.6,0,4.8-0.8,6.1-2.3
		c1.5-1.5,2.1-3.9,2.1-7.1v-16.4h4.1v16.6c0,4.3-1.1,7.4-3.3,9.7c-2.1,2.3-5.2,3.3-9.2,3.3C603.7,253.9,600.8,252.7,598.6,250.6z"/>
</g>
<g class="st2">
	<path class="st3" d="M630.8,252.9c-2-0.7-3.6-1.6-4.8-2.6l1.5-3.3c1.1,1,2.6,1.8,4.3,2.5c1.6,0.7,3.6,1,5.4,1
		c2.5,0,4.3-0.3,5.4-1.3c1.1-0.8,1.8-2,1.8-3.3c0-1-0.3-1.8-1-2.5s-1.5-1.1-2.5-1.5c-1-0.3-2.3-0.7-4.1-1.1c-2.1-0.5-3.9-1-5.4-1.6
		c-1.3-0.5-2.5-1.3-3.4-2.5s-1.5-2.6-1.5-4.4c0-1.6,0.5-3,1.3-4.3c0.8-1.3,2.1-2.3,3.8-3c1.6-0.7,3.8-1.1,6.2-1.1
		c1.8,0,3.4,0.2,5.1,0.7c1.6,0.5,3.1,1.1,4.3,2l-1.3,3.3c-1.1-0.8-2.5-1.3-3.9-1.8s-2.8-0.7-4.1-0.7c-2.3,0-4.1,0.5-5.4,1.3
		c-1.1,0.8-1.8,2-1.8,3.3c0,1,0.3,1.8,1,2.5s1.5,1.1,2.5,1.5c1,0.3,2.3,0.7,4.1,1.1c2.1,0.5,3.9,1,5.2,1.6c1.3,0.5,2.5,1.3,3.4,2.5
		s1.5,2.6,1.5,4.4c0,1.5-0.5,3-1.3,4.3c-0.8,1.3-2.1,2.3-3.8,3c-1.6,0.8-3.8,1.1-6.2,1.1C634.9,253.9,632.9,253.5,630.8,252.9z"/>
</g>
<g class="st2">
	<path class="st3" d="M660,228h-10v-3.6h24.3v3.6h-10v25.6h-4.1V228H660z"/>
</g>
<g class="st2">
	<path class="st3" d="M695.9,246.2h-15.6l-3.3,7.4h-4.3l13.3-29.2h4.1l13.3,29.2H699L695.9,246.2z M694.4,242.9l-6.4-14.3l-6.4,14.3
		H694.4z"/>
	<path class="st3" d="M707.8,224.4h4.1v29.2h-4.1V224.4z"/>
	<path class="st3" d="M746,224.4v29.2h-3.4l-17.5-21.8v21.8H721v-29.2h3.4l17.5,21.8v-21.8H746z"/>
	<path class="st3" d="M773.4,246.2h-15.6l-3.3,7.4h-4.3l13.3-29.2h4.1l13.3,29.2h-4.4L773.4,246.2z M771.9,242.9l-6.4-14.3
		l-6.4,14.3H771.9z"/>
	<path class="st3" d="M809,240.9c1,1.3,1.5,2.8,1.5,4.8c0,2.5-1,4.4-2.8,5.9c-2,1.3-4.8,2-8.4,2h-13.9v-29.2h13.1
		c3.3,0,5.9,0.7,7.7,2c1.8,1.3,2.8,3.1,2.8,5.6c0,1.5-0.3,2.8-1.1,3.9c-0.7,1.1-1.6,2-2.8,2.6C806.7,238.8,808,239.8,809,240.9z
		 M789.5,227.6v9.3h8.5c2.1,0,3.8-0.3,4.9-1.1c1.1-0.8,1.8-2,1.8-3.4c0-1.5-0.7-2.6-1.8-3.4c-1.1-0.8-2.8-1.1-4.9-1.1h-8.5V227.6z
		 M804.6,249c1.1-0.8,1.8-2,1.8-3.6c0-3.3-2.5-4.9-7.2-4.9h-9.7v9.7h9.7C801.5,250.1,803.3,249.8,804.6,249z"/>
	<path class="st3" d="M817,224.4h4.1v25.6H837v3.6h-20V224.4z"/>
	<path class="st3" d="M863.1,249.9v3.6h-21.3v-29.2h20.7v3.6h-16.4v9h14.8v3.6h-14.8v9.5h17.1V249.9z"/>
</g>
<g class="st2">
	<path class="st3" d="M885.2,228v10.2H900v3.6h-14.8v11.8h-4.1v-29.2h20.7v3.6L885.2,228L885.2,228z"/>
</g>
<g class="st2">
	<path class="st3" d="M924.9,246.2h-15.6l-3.3,7.4h-4.3l13.3-29.2h4.1l13.3,29.2H928L924.9,246.2z M923.4,242.9l-6.4-14.3l-6.4,14.3
		H923.4z"/>
	<path class="st3" d="M939,252.9c-2-0.7-3.6-1.6-4.8-2.6l1.5-3.3c1.1,1,2.6,1.8,4.3,2.5s3.6,1,5.4,1c2.5,0,4.3-0.3,5.4-1.3
		c1.1-0.8,1.8-2,1.8-3.3c0-1-0.3-1.8-1-2.5c-0.7-0.7-1.5-1.1-2.5-1.5c-1-0.3-2.3-0.7-4.1-1.1c-2.1-0.5-3.9-1-5.4-1.6
		c-1.3-0.5-2.5-1.3-3.4-2.5s-1.5-2.6-1.5-4.4c0-1.6,0.3-3,1.3-4.3c0.8-1.3,2.1-2.3,3.8-3c1.6-0.8,3.8-1.1,6.2-1.1
		c1.8,0,3.4,0.2,5.1,0.7c1.6,0.5,3.1,1.1,4.3,2l-1.3,3.3c-1.1-0.8-2.5-1.3-3.9-1.8c-1.5-0.3-2.8-0.7-4.1-0.7c-2.3,0-4.1,0.5-5.4,1.3
		c-1.1,0.8-1.8,2-1.8,3.3c0,1,0.3,1.8,1,2.5c0.7,0.7,1.5,1.1,2.5,1.5c1,0.3,2.3,0.7,4.1,1.1c2.1,0.5,3.9,1,5.2,1.6
		c1.3,0.5,2.5,1.3,3.4,2.5s1.5,2.6,1.5,4.4c0,1.5-0.5,3-1.3,4.3c-0.8,1.3-2.1,2.3-3.8,3c-1.6,0.8-3.8,1.1-6.2,1.1
		C943.3,253.9,941.2,253.5,939,252.9z"/>
	<path class="st3" d="M988,224.4v29.2h-4.1v-13.1h-16.9v13.1H963v-29.2h4.1V237h16.9v-12.6H988z"/>
	<path class="st3" d="M996.7,224.4h4.1v29.2h-4.1V224.4z"/>
	<path class="st3" d="M1014.9,251.9c-2.3-1.3-4.3-3.1-5.6-5.4c-1.3-2.3-2-4.8-2-7.7c0-3,0.7-5.4,2-7.7s3.3-4.1,5.6-5.4
		c2.3-1.3,5.1-2,8-2c3,0,5.6,0.7,7.9,2c2.3,1.3,4.3,3.1,5.6,5.4c1.3,2.3,2,4.8,2,7.7c0,2.8-0.7,5.4-2,7.7s-3.1,4.1-5.6,5.4
		c-2.3,1.3-5.1,2-7.9,2C1020,253.9,1017.4,253.2,1014.9,251.9z M1028.7,248.8c1.6-1,3.1-2.3,4.1-4.1c1-1.6,1.5-3.6,1.5-5.7
		s-0.5-4.1-1.5-5.7c-1-1.6-2.3-3.1-4.1-4.1c-1.6-1-3.6-1.5-5.7-1.5c-2.1,0-4.1,0.5-5.9,1.5c-1.8,1-3.1,2.3-4.1,4.1
		c-1,1.6-1.5,3.6-1.5,5.7s0.5,4.1,1.5,5.7c1,1.6,2.3,3.1,4.1,4.1c1.8,1,3.6,1.5,5.9,1.5C1025.1,250.1,1027.1,249.6,1028.7,248.8z"/>
	<path class="st3" d="M1070,224.4v29.2h-3.4l-17.5-21.8v21.8h-4.1v-29.2h3.4l17.5,21.8v-21.8H1070z"/>
	<path class="st3" d="M1090,224.4h4.1v25.6h15.9v3.6h-20V224.4z"/>
	<path class="st3" d="M1114.9,224.4h4.1v29.2h-4.1V224.4z"/>
	<path class="st3" d="M1153,224.4v29.2h-3.4l-17.5-21.8v21.8h-4.1v-29.2h3.4l17.5,21.8v-21.8H1153z"/>
	<path class="st3" d="M1183,249.9v3.6h-21.3v-29.2h20.7v3.6h-16.4v9h14.8v3.6h-14.8v9.5h17.1V249.9z"/>
</g>
</svg>
