<?xml version="1.0" encoding="UTF-8"?>
<svg id="Layer_2" data-name="Layer 2" xmlns="http://www.w3.org/2000/svg" viewBox="0 0 749.24 373.74">
  <defs>
    <style>
      .cls-1 {
        fill: #50602d;
      }

      .cls-2 {
        fill: none;
        stroke-linecap: round;
        stroke-width: 14px;
      }

      .cls-2, .cls-3 {
        stroke: #51612d;
        stroke-miterlimit: 10;
      }

      .cls-3 {
        fill: #51612d;
      }
    </style>
  </defs>
  <g id="Layer_1-2" data-name="Layer 1">
    <g>
      <path class="cls-1" d="M292.31,347.15c4.04,2.68,18.82,12.21,41.16,18.79,16,4.71,48.4,14.25,81.88,1.22,8.76-3.41,21.37-8.51,30.25-21.69,4.48-6.65,6.7-13.41,7.81-18.96,13.45-4.92,24.85-10.11,33.93-14.69l-4.33-8.5c-9.22,5.51-20.7,11.68-34.29,17.53-10.08,3.54-21.18,6.88-33.23,9.69-36.48,8.5-66.74,8.67-86.21,7.46,20.04,.27,48.06-1.43,80.23-10.14,15.69-4.25,29.71-9.44,41.98-14.87-7.78-6.34-20.64-15.04-37.94-18.4-32.66-6.34-52.67,11.86-98.66,18.82-13.09,1.98-32.66,3.71-57.34,1.13,6.75,8.86,17.94,21.44,34.76,32.62Z"/>
      <path class="cls-1" d="M246.35,23.92c-4.32,2.21-19.85,10.45-36.51,26.72-11.93,11.65-36.09,35.26-41.09,70.83-1.31,9.31-3.02,22.8,4.14,36.99,3.61,7.16,8.42,12.4,12.73,16.08-2.28,14.14-3.32,26.62-3.77,36.78l9.53,.38c-.3-10.74-.07-23.76,1.47-38.48,1.84-10.53,4.35-21.84,7.79-33.73,10.42-35.98,25.06-62.46,35.64-78.85-10.03,17.35-22.24,42.62-30.37,74.95-3.96,15.76-6.29,30.53-7.55,43.89,9.34-3.69,23.21-10.66,34.6-24.11,21.5-25.39,15.4-51.75,31.81-95.27,4.67-12.39,12.72-30.3,27.05-50.57-11.03,1.56-27.47,5.17-45.45,14.38Z"/>
      <path class="cls-1" d="M581.98,151.29c.31-4.84,1.18-22.4-4.28-45.05-3.91-16.21-11.84-49.05-39.84-71.54-7.33-5.89-18.05-14.26-33.9-15.36-8-.56-14.96,.9-20.33,2.71-10.98-9.19-21.17-16.47-29.67-22.05l-5.2,7.99c9.38,5.24,20.45,12.1,32.32,20.95,8.11,6.96,16.54,14.91,24.99,23.95,25.59,27.36,40.85,53.48,49.52,70.95-9.78-17.49-25.24-40.92-48.86-64.44-11.51-11.47-23.02-21.02-33.85-28.94-1.61,9.91-2.72,25.4,3.02,42.06,10.82,31.46,36.59,39.7,65.59,76.06,8.26,10.35,19.53,26.44,29.62,49.11,4.3-10.27,9.61-26.25,10.89-46.41Z"/>
      <path class="cls-2" d="M337.7,91.09c0-20.39,16.53-36.92,36.92-36.92s36.92,16.53,36.92,36.92-16.53,36.92-36.92,36.92"/>
      <line class="cls-2" x1="374.62" y1="128.02" x2="374.62" y2="162.9"/>
      <g>
        <path class="cls-3" d="M713.69,286.17c-3.55,8.25-11.75,14.03-21.31,13.99-11.33-.05-21.95-9.8-22.91-21.09-.23-2.65,0-5.21,.6-7.62,.51-2.03-.74-4.08-2.74-4.69l-212.56-65.06c-12.27-3.76-23.1-11.42-30.2-22.11-10.74-16.15-29.1-26.8-49.96-26.8v24.37s0,54.79,0,54.79l363.73,111.34c5.19,1.59,10.4-2.32,10.39-7.75-.02-21.39-11.5-40.71-29.39-51.18-2.06-1.2-4.71-.37-5.65,1.82Z"/>
        <path class="cls-3" d="M35.55,286.17c3.55,8.25,11.75,14.03,21.31,13.99,11.33-.05,21.95-9.8,22.91-21.09,.23-2.65,0-5.21-.6-7.62-.51-2.03,.74-4.08,2.74-4.69l212.56-65.06c12.27-3.76,23.1-11.42,30.2-22.11,10.74-16.15,29.1-26.8,49.96-26.8v24.37s0,54.79,0,54.79L10.89,343.29c-5.19,1.59-10.4-2.32-10.39-7.75,.02-21.39,11.5-40.71,29.39-51.18,2.06-1.2,4.71-.37,5.65,1.82Z"/>
      </g>
    </g>
  </g>
</svg>